<svg width="52" height="52" viewBox="0 0 52 52" fill="none" xmlns="http://www.w3.org/2000/svg">
<circle cx="26" cy="26" r="26" fill="#2C9C8C"/>
<path d="M32.9742 30.9682C33.5677 31.56 34.1497 32.1393 34.7308 32.7194C35.6735 33.6613 36.6188 34.6013 37.5562 35.5484C37.9542 35.95 38.0999 36.4343 37.9302 36.9851C37.7668 37.5182 37.3971 37.8505 36.8543 37.9651C36.3052 38.0815 35.8592 37.8763 35.4727 37.4889C34.0617 36.0726 32.6455 34.6617 31.2345 33.2454C31.1492 33.1593 31.0853 33.0517 31.0071 32.9478C28.3762 34.8634 25.5162 35.5449 22.3878 34.9025C19.7809 34.3676 17.6814 32.9887 16.083 30.8643C12.9644 26.7203 13.3909 20.858 17.0719 17.1201C20.7067 13.4284 26.5824 12.946 30.7805 16.0299C33.1546 17.7741 34.5886 20.1215 35.0142 23.0473C35.4371 25.9571 34.7112 28.5888 32.9742 30.9682ZM24.5637 32.2823C28.8347 32.2832 32.2696 28.8589 32.2812 24.587C32.2927 20.3054 28.8551 16.8571 24.569 16.8527C20.3007 16.8482 16.8631 20.2761 16.8524 24.5479C16.8418 28.8341 20.2794 32.2814 24.5637 32.2823Z" fill="white"/>
</svg>
