<svg width="70" height="70" viewBox="0 0 70 70" fill="none" xmlns="http://www.w3.org/2000/svg">
<circle cx="35" cy="35" r="35" fill="#2C9C8C"/>
<path d="M56.1258 64.2353C56.0646 58.3266 53.9739 53.2348 49.8237 49.0474C46.3729 45.5659 42.184 43.4572 37.2919 42.8813C30.7363 42.1105 24.9725 43.9306 20.0804 48.3703C16.0688 52.0105 13.797 56.5714 13.1713 61.948C13.0827 62.7051 13.0864 63.4721 13.0477 64.2353C11.7176 64.2353 10.3887 64.2353 9.05859 64.2353C9.09856 58.8113 10.6273 53.8569 13.7895 49.4384C16.9319 45.0449 21.0758 41.9494 26.1864 40.1056C18.2495 34.5803 17.9397 23.596 24.2044 17.4573C30.3079 11.4749 39.6899 11.9483 45.2252 17.7197C51.3424 24.0982 50.6468 34.6228 42.9783 40.0918C43.1919 40.1768 43.3617 40.2455 43.5328 40.3142C51.3149 43.4147 56.5117 48.9375 59.0508 56.9312C59.6004 58.6614 59.9101 60.4452 60.03 62.2591C60.0412 62.4202 60.0874 62.5789 60.1174 62.7388C60.1174 63.2372 60.1174 63.7357 60.1174 64.2353C58.7848 64.2353 57.4559 64.2353 56.1258 64.2353ZM34.5967 17.1588C28.6881 17.15 23.8497 21.9695 23.8185 27.8945C23.7872 33.8133 28.6431 38.6915 34.5768 38.7002C40.4855 38.7089 45.3238 33.8895 45.355 27.9645C45.3863 22.0445 40.5304 17.1675 34.5967 17.1588Z" fill="white"/>
</svg>
